_________________________  Visit us at _________________________
  
http://p2pdl.com  ____________________________  http://p2pdl.com

 
http://www.shotpix.com/images/83433327962576643241.jpg

American Mary 2012 BRRip 720p x264 AAC - PRiSTiNE

Genre: Horror | Thriller
Plot: The story follows medical student, Mary Mason, as she becomes 
increasingly broke and disenchanted with the surgical world she once 
admired. The allure of easy money sends Mary into the world of 
underground surgeries which ends up leaving more marks on her than her 
so called 'freakish' clientele.
Director: Jen Soska, Sylvia Soska
Stars: Katharine Isabelle, Antonio Cupo, Tristan Risk
Rated: Rated R for strong aberrant violent content including disturbing images, torture, a rape, sexual content, graphic nudity, language and brief drug use.

Info: 
http://www.imdb.com/title/tt1959332/

General
Complete name                  : American Mary 2012 BRRip 720p x264 AAC - PRiSTiNE.mp4
Format                         : MPEG-4
Format profile                 : Base Media
File size                      : 554 MiB
Duration                       : 1h 42mn
Overall bit rate mode          : Variable
Overall bit rate               : 757 Kbps

Source                         : 720p BluRay Geckos (Thanks)

Video
Format                         : AVC
Format/Info                    : Advanced Video Codec
Format profile                 : High 10@L4.1
Duration                       : 1h 42mn
Bit rate                       : 679 Kbps
Width                          : 1 280 pixels
Height                         : 536 pixels
Display aspect ratio           : 2.40:1
Frame rate mode                : Constant
Frame rate                     : 23.976 fps
Bit depth                      : 10 bits
Scan type                      : Progressive
Bits/(Pixel*Frame)             : 0.041
Stream size                    : 497 MiB (90%)
Writing library                : x264 core 129 r2245 bc13772

Audio
Format                         : AAC
Duration                       : 1h 42mn
Bit rate mode                  : Variable
Bit rate                       : 75.0 Kbps
Channel(s)                     : 2 channels
Channel positions              : Front: L R
Sampling rate                  : 48.0 KHz / 24.0 KHz
Compression mode               : Lossy
Stream size                    : 54.9 MiB (10%)
Language                       : English

Subtitle                       : Yes ( English)

Screens: 
http://www.shotpix.com/images/82884539231397302341.jpg 
http://www.shotpix.com/images/53163387319235098253.jpg 
http://www.shotpix.com/images/89758528825697174020.jpg 
http://www.shotpix.com/images/16865893778686558831.jpg

Thumbs: 
http://www.shotpix.com/images/80614116163443411176.jpg
----------------------------------------------------------------------------------------------------
Encoded using state of the art 10bit encoding technique, which enable us to provide you more crisper 
and sharper images at small sizes, just make sure you follow our instructions without a fault.
Recommend to you to use latest version of VLC player. Install K-Lite Codec Pack or shark007 codecs
in case of any kind of problem in playback (For non-VLC Media Player users). Alternatively, install
Core AVC codecs, the fastest decoder that there is coupled with Community Center Codec Pack and play
on Windows Media Player Classic. Check sample to be sure.
Enjoy!

Greets to: VYTO, a2zRG, MusiK_KinG, Kuroyukihime, TorDigger, Ash968, StyLishSaLH, Masta and staff members at
ExtraTorrent, TPB, H33T, KAT, 1337x, PublicHD, Ahashare, BTScene, SilverTorrent, LimeTorrents, TorrentMafia,
P2PDL, and all others.

Encoder Notes: Looking For Early Access To Anything You Can Provide DVDScr, R5, DVDR, BluRay, Direct
Audio, Early Music Releases, Seedboxes, Dedicated Servers anything u can provide, Advance / Promo CDs/
DVDs. If You Got anything to offer contact me at "prg@hush.com".